# xmcd CD database file
#
# Track frame offsets:
#	150
#	19979
#	39417
#	58287
#	80715
#	101064
#	122453
#	144316
#	165636
#	186189
#	207634
#	225133
#	240550
#
# Disc length: 3481 seconds
#
# Revision: 1
# Processed by: cddbd v1.5.2PL0 Copyright (c) Steve Scherf et al.
# Submitted via: jetAudio 7
#
DISCID=ad0d970d
DTITLE=童麗 - 零時十分
DYEAR=1900
DGENRE=Hip-Hop
TTITLE0=紅燭淚 (Red Winding Sheel)
TTITLE1=零時十分 (600 Sec)
TTITLE2=天才白癡夢 (The Genius's Dream)
TTITLE3=梁祝 (Butterfly Lovers)
TTITLE4=逝去的諾言 (The Past Promise)
TTITLE5=歸來吧 (Come Back)
TTITLE6=每當變幻時 (When Something Changing)
TTITLE7=離別再叮嚀 (Urge Again And Agian When Goodbye)
TTITLE8=不裝飾你的夢 (Don't Decorate Your Dream)
TTITLE9=石頭記 (The Stone)
TTITLE10=恨在今天再相遇 (We Meet Again Today)
TTITLE11=不了情 (Love Endless)
TTITLE12=紅塵 (The Life World)
EXTD=
EXTT0=
EXTT1=
EXTT2=
EXTT3=
EXTT4=
EXTT5=
EXTT6=
EXTT7=
EXTT8=
EXTT9=
EXTT10=
EXTT11=
EXTT12=
PLAYORDER=
